<svg xmlns="http://www.w3.org/2000/svg" xmlns:xlink="http://www.w3.org/1999/xlink" viewBox="0 0 93.24 189.53"><defs><filter id="luminosity-noclip" x="4.48" y="-8041.36" width="85.97" height="32766" filterUnits="userSpaceOnUse" color-interpolation-filters="sRGB"><feFlood flood-color="#fff" result="bg"/><feBlend in="SourceGraphic" in2="bg"/></filter><mask id="mask" x="4.48" y="-8041.36" width="85.97" height="32766" maskUnits="userSpaceOnUse"><g style="filter:url(#luminosity-noclip)"/></mask><radialGradient id="radial-gradient" cx="47.46" cy="101.14" r="50.81" gradientUnits="userSpaceOnUse"><stop offset="0.01" stop-color="#fff"/><stop offset="1"/></radialGradient><filter id="luminosity-noclip-2" x="54.52" y="-8041.36" width="19.05" height="32766" filterUnits="userSpaceOnUse" color-interpolation-filters="sRGB"><feFlood flood-color="#fff" result="bg"/><feBlend in="SourceGraphic" in2="bg"/></filter><mask id="mask-2" x="54.52" y="-8041.36" width="19.05" height="32766" maskUnits="userSpaceOnUse"><g style="filter:url(#luminosity-noclip-2)"/></mask><radialGradient id="radial-gradient-2" cx="-196.1" cy="-678.97" r="8.88" gradientTransform="matrix(1, 0, 0, 1.53, 260.16, 1086.83)" gradientUnits="userSpaceOnUse"><stop offset="0.01" stop-color="#fff"/><stop offset="0.04" stop-color="#f3f3f3"/><stop offset="0.25" stop-color="#aaa"/><stop offset="0.45" stop-color="#6e6e6e"/><stop offset="0.63" stop-color="#3e3e3e"/><stop offset="0.78" stop-color="#1c1c1c"/><stop offset="0.91" stop-color="#080808"/><stop offset="1"/></radialGradient><filter id="luminosity-noclip-3" x="6.22" y="-8041.36" width="16.68" height="32766" filterUnits="userSpaceOnUse" color-interpolation-filters="sRGB"><feFlood flood-color="#fff" result="bg"/><feBlend in="SourceGraphic" in2="bg"/></filter><mask id="mask-3" x="6.22" y="-8041.36" width="16.68" height="32766" maskUnits="userSpaceOnUse"><g style="filter:url(#luminosity-noclip-3)"/></mask><radialGradient id="radial-gradient-3" cx="142.62" cy="-198.65" r="8.24" gradientTransform="matrix(0, 1, -1.53, 0, -290.03, -72.72)" xlink:href="#radial-gradient-2"/><filter id="luminosity-noclip-4" x="13.85" y="-8041.36" width="8.33" height="32766" filterUnits="userSpaceOnUse" color-interpolation-filters="sRGB"><feFlood flood-color="#fff" result="bg"/><feBlend in="SourceGraphic" in2="bg"/></filter><mask id="mask-4" x="13.85" y="-8041.36" width="8.33" height="32766" maskUnits="userSpaceOnUse"><g style="filter:url(#luminosity-noclip-4)"/></mask><radialGradient id="radial-gradient-4" cx="147.15" cy="-193.66" r="4.11" gradientTransform="matrix(0.99, 0.14, -0.21, 1.52, -168.09, 352.3)" xlink:href="#radial-gradient-2"/><filter id="luminosity-noclip-5" x="10.93" y="-8041.36" width="36.53" height="32766" filterUnits="userSpaceOnUse" color-interpolation-filters="sRGB"><feFlood flood-color="#fff" result="bg"/><feBlend in="SourceGraphic" in2="bg"/></filter><mask id="mask-5" x="10.93" y="-8041.36" width="36.53" height="32766" maskUnits="userSpaceOnUse"><g style="filter:url(#luminosity-noclip-5)"/></mask><radialGradient id="radial-gradient-5" cx="29.2" cy="58.32" r="18.26" gradientTransform="translate(25.25 -6.78) rotate(23.12)" gradientUnits="userSpaceOnUse"><stop offset="0.01" stop-color="#fff"/><stop offset="0.1" stop-color="#d3d3d3"/><stop offset="0.24" stop-color="#949494"/><stop offset="0.38" stop-color="#5f5f5f"/><stop offset="0.5" stop-color="#363636"/><stop offset="0.62" stop-color="#181818"/><stop offset="0.71" stop-color="#060606"/><stop offset="0.79"/><stop offset="1"/></radialGradient><filter id="luminosity-noclip-6" x="5.81" y="-8041.36" width="35.93" height="32766" filterUnits="userSpaceOnUse" color-interpolation-filters="sRGB"><feFlood flood-color="#fff" result="bg"/><feBlend in="SourceGraphic" in2="bg"/></filter><mask id="mask-6" x="5.81" y="-8041.36" width="35.93" height="32766" maskUnits="userSpaceOnUse"><g style="filter:url(#luminosity-noclip-6)"/></mask><linearGradient id="linear-gradient" x1="72.69" y1="39.01" x2="145.52" y2="290.84" gradientTransform="translate(-75)" gradientUnits="userSpaceOnUse"><stop offset="0.01" stop-color="#fff"/><stop offset="0.19" stop-color="#fff"/><stop offset="0.21" stop-color="#f6f6f6"/><stop offset="0.35" stop-color="#b7b7b7"/><stop offset="0.45" stop-color="#8f8f8f"/><stop offset="0.51" stop-color="gray"/><stop offset="0.64" stop-color="#626262"/><stop offset="0.93" stop-color="#141414"/><stop offset="1"/></linearGradient><filter id="luminosity-noclip-7" x="6.47" y="-8041.36" width="10.74" height="32766" filterUnits="userSpaceOnUse" color-interpolation-filters="sRGB"><feFlood flood-color="#fff" result="bg"/><feBlend in="SourceGraphic" in2="bg"/></filter><mask id="mask-7" x="6.47" y="-8041.36" width="10.74" height="32766" maskUnits="userSpaceOnUse"><g style="filter:url(#luminosity-noclip-7)"/></mask><radialGradient id="radial-gradient-6" cx="-54.17" cy="-330.16" r="5.36" gradientTransform="matrix(1, 0, 0, 1.53, 66.01, 644.9)" xlink:href="#radial-gradient-2"/><filter id="luminosity-noclip-8" x="6.48" y="-8041.36" width="45.8" height="32766" filterUnits="userSpaceOnUse" color-interpolation-filters="sRGB"><feFlood flood-color="#fff" result="bg"/><feBlend in="SourceGraphic" in2="bg"/></filter><mask id="mask-8" x="6.48" y="-8041.36" width="45.8" height="32766" maskUnits="userSpaceOnUse"><g style="filter:url(#luminosity-noclip-8)"/></mask><linearGradient id="linear-gradient-2" x1="94.32" y1="16" x2="128.33" y2="56.84" xlink:href="#linear-gradient"/><filter id="luminosity-noclip-9" x="62.51" y="-8041.36" width="11.5" height="32766" filterUnits="userSpaceOnUse" color-interpolation-filters="sRGB"><feFlood flood-color="#fff" result="bg"/><feBlend in="SourceGraphic" in2="bg"/></filter><mask id="mask-9" x="62.51" y="-8041.36" width="11.5" height="32766" maskUnits="userSpaceOnUse"><g style="filter:url(#luminosity-noclip-9)"/></mask><radialGradient id="radial-gradient-7" cx="-188.78" cy="-684.24" r="5.36" gradientTransform="matrix(0.94, -0.33, 0.51, 1.45, 594.8, 962.59)" xlink:href="#radial-gradient-2"/><linearGradient id="linear-gradient-3" x1="128.1" y1="0.89" x2="115.45" y2="188.32" gradientTransform="translate(-75)" gradientUnits="userSpaceOnUse"><stop offset="0.01" stop-color="#ac33b3"/><stop offset="0.19" stop-color="#c4377c"/><stop offset="0.4" stop-color="#d53b55"/><stop offset="0.51" stop-color="#dc3c46"/><stop offset="0.63" stop-color="#e15a3a"/><stop offset="0.91" stop-color="#efa81a"/><stop offset="1" stop-color="#f4c40f"/></linearGradient><filter id="luminosity-noclip-10" x="4.48" y="43.55" width="85.97" height="115.18" filterUnits="userSpaceOnUse" color-interpolation-filters="sRGB"><feFlood flood-color="#fff" result="bg"/><feBlend in="SourceGraphic" in2="bg"/></filter><mask id="mask-10" x="4.48" y="43.55" width="85.97" height="115.18" maskUnits="userSpaceOnUse"><g style="mask:url(#mask);filter:url(#luminosity-noclip-10)"><path d="M90.44,63.49a57.58,57.58,0,0,0-86-1.33L5.4,141.1a57.58,57.58,0,0,0,82.81.13Z" style="mix-blend-mode:multiply;fill:url(#radial-gradient)"/></g></mask><radialGradient id="radial-gradient-8" cx="47.46" cy="101.14" r="50.81" gradientUnits="userSpaceOnUse"><stop offset="0.01" stop-color="#fff"/><stop offset="1" stop-color="#fff"/></radialGradient><linearGradient id="linear-gradient-4" x1="121.91" y1="-23.15" x2="168.19" y2="124.61" xlink:href="#linear-gradient-3"/><filter id="luminosity-noclip-11" x="5.81" y="55.86" width="35.93" height="128.21" filterUnits="userSpaceOnUse" color-interpolation-filters="sRGB"><feFlood flood-color="#fff" result="bg"/><feBlend in="SourceGraphic" in2="bg"/></filter><mask id="mask-11" x="5.81" y="55.86" width="35.93" height="128.21" maskUnits="userSpaceOnUse"><g style="mask:url(#mask-6);filter:url(#luminosity-noclip-11)"><polygon points="33.12 161.65 23.35 147.85 27.23 62.41 5.81 55.87 7.82 152.74 41.74 184.08 39.89 156.52 33.12 161.65" style="mix-blend-mode:multiply;fill:url(#linear-gradient)"/></g></mask><linearGradient id="linear-gradient-5" x1="72.69" y1="39.01" x2="145.52" y2="290.84" xlink:href="#linear-gradient-3"/><filter id="luminosity-noclip-12" x="6.47" y="130.44" width="10.74" height="16.42" filterUnits="userSpaceOnUse" color-interpolation-filters="sRGB"><feFlood flood-color="#fff" result="bg"/><feBlend in="SourceGraphic" in2="bg"/></filter><mask id="mask-12" x="6.47" y="130.44" width="10.74" height="16.42" maskUnits="userSpaceOnUse"><g style="mask:url(#mask-7);filter:url(#luminosity-noclip-12)"><ellipse cx="11.84" cy="138.66" rx="5.36" ry="8.22" transform="translate(-7.5 0.85) rotate(-3.11)" style="mix-blend-mode:multiply;fill:url(#radial-gradient-6)"/></g></mask><radialGradient id="radial-gradient-9" cx="-54.17" cy="-330.16" r="5.36" gradientTransform="matrix(1, 0, 0, 1.53, 66.01, 644.9)" gradientUnits="userSpaceOnUse"><stop offset="0.01" stop-color="#cab3ff"/><stop offset="0.14" stop-color="#d4c1ff"/><stop offset="0.5" stop-color="#ebe3ff"/><stop offset="0.8" stop-color="#faf7ff"/><stop offset="1" stop-color="#fff"/></radialGradient><linearGradient id="linear-gradient-6" x1="108.02" y1="-11.83" x2="184.77" y2="142.54" xlink:href="#linear-gradient-3"/><filter id="luminosity-noclip-13" x="6.48" y="4.12" width="45.8" height="48.97" filterUnits="userSpaceOnUse" color-interpolation-filters="sRGB"><feFlood flood-color="#fff" result="bg"/><feBlend in="SourceGraphic" in2="bg"/></filter><mask id="mask-13" x="6.48" y="4.12" width="45.8" height="48.97" maskUnits="userSpaceOnUse"><g style="mask:url(#mask-8);filter:url(#luminosity-noclip-13)"><polygon points="6.48 52.03 12.42 53.09 49.79 12.17 52.28 4.12 6.48 52.03" style="mix-blend-mode:multiply;fill:url(#linear-gradient-2)"/></g></mask><linearGradient id="linear-gradient-7" x1="94.32" y1="16" x2="128.33" y2="56.84" xlink:href="#linear-gradient-3"/><filter id="luminosity-noclip-14" x="62.51" y="27.71" width="11.5" height="15.91" filterUnits="userSpaceOnUse" color-interpolation-filters="sRGB"><feFlood flood-color="#fff" result="bg"/><feBlend in="SourceGraphic" in2="bg"/></filter><mask id="mask-14" x="62.51" y="27.71" width="11.5" height="15.91" maskUnits="userSpaceOnUse"><g style="mask:url(#mask-9);filter:url(#luminosity-noclip-14)"><path d="M73.32,33.89c1.5,4.28.46,8.55-2.33,9.53s-6.28-1.69-7.79-6-.46-8.55,2.33-9.54S71.81,29.61,73.32,33.89Z" style="mix-blend-mode:multiply;fill:url(#radial-gradient-7)"/></g></mask><radialGradient id="radial-gradient-10" cx="-188.78" cy="-684.24" r="5.36" gradientTransform="matrix(0.94, -0.33, 0.51, 1.45, 594.8, 962.59)" xlink:href="#radial-gradient-8"/><filter id="luminosity-noclip-15" x="54.52" y="32.54" width="19.05" height="26.37" filterUnits="userSpaceOnUse" color-interpolation-filters="sRGB"><feFlood flood-color="#fff" result="bg"/><feBlend in="SourceGraphic" in2="bg"/></filter><mask id="mask-15" x="54.52" y="32.54" width="19.05" height="26.37" maskUnits="userSpaceOnUse"><g style="mask:url(#mask-2);filter:url(#luminosity-noclip-15)"><ellipse cx="64.04" cy="45.73" rx="8.88" ry="13.62" transform="translate(-11.55 23.87) rotate(-19.4)" style="mix-blend-mode:multiply;fill:url(#radial-gradient-2)"/></g></mask><radialGradient id="radial-gradient-11" cx="-196.1" cy="-678.97" r="8.88" gradientTransform="matrix(1, 0, 0, 1.53, 260.16, 1086.83)" xlink:href="#radial-gradient-8"/><filter id="luminosity-noclip-16" x="6.22" y="57.33" width="16.68" height="25.13" filterUnits="userSpaceOnUse" color-interpolation-filters="sRGB"><feFlood flood-color="#fff" result="bg"/><feBlend in="SourceGraphic" in2="bg"/></filter><mask id="mask-16" x="6.22" y="57.33" width="16.68" height="25.13" maskUnits="userSpaceOnUse"><g style="mask:url(#mask-3);filter:url(#luminosity-noclip-16)"><ellipse cx="14.56" cy="69.89" rx="12.63" ry="8.24" transform="translate(-56.66 74.83) rotate(-82.2)" style="mix-blend-mode:multiply;fill:url(#radial-gradient-3)"/></g></mask><radialGradient id="radial-gradient-12" cx="142.62" cy="-198.65" r="8.24" gradientTransform="matrix(0, 1, -1.53, 0, -290.03, -72.72)" gradientUnits="userSpaceOnUse"><stop offset="0.01" stop-color="#a278ff"/><stop offset="0.14" stop-color="#b492ff"/><stop offset="0.42" stop-color="#d4c1ff"/><stop offset="0.66" stop-color="#ece3ff"/><stop offset="0.87" stop-color="#faf7ff"/><stop offset="1" stop-color="#fff"/></radialGradient><filter id="luminosity-noclip-17" x="13.85" y="71.81" width="8.33" height="12.54" filterUnits="userSpaceOnUse" color-interpolation-filters="sRGB"><feFlood flood-color="#fff" result="bg"/><feBlend in="SourceGraphic" in2="bg"/></filter><mask id="mask-17" x="13.85" y="71.81" width="8.33" height="12.54" maskUnits="userSpaceOnUse"><g style="mask:url(#mask-4);filter:url(#luminosity-noclip-17)"><path d="M22.09,78.64c-.48,3.45-2.68,6-4.93,5.69S13.47,81,13.94,77.52s2.68-6,4.93-5.68S22.56,75.19,22.09,78.64Z" style="mix-blend-mode:multiply;fill:url(#radial-gradient-4)"/></g></mask><radialGradient id="radial-gradient-13" cx="147.15" cy="-193.66" r="4.11" gradientTransform="matrix(0.99, 0.14, -0.21, 1.52, -168.09, 352.3)" xlink:href="#radial-gradient-9"/><filter id="luminosity-noclip-18" x="10.93" y="40.05" width="36.53" height="36.53" filterUnits="userSpaceOnUse" color-interpolation-filters="sRGB"><feFlood flood-color="#fff" result="bg"/><feBlend in="SourceGraphic" in2="bg"/></filter><mask id="mask-18" x="10.93" y="40.05" width="36.53" height="36.53" maskUnits="userSpaceOnUse"><g style="mask:url(#mask-5);filter:url(#luminosity-noclip-18)"><circle cx="29.2" cy="58.32" r="18.26" transform="translate(-20.56 16.15) rotate(-23.12)" style="mix-blend-mode:multiply;fill:url(#radial-gradient-5)"/></g></mask><radialGradient id="radial-gradient-14" cx="29.2" cy="58.32" r="18.26" gradientTransform="translate(25.25 -6.78) rotate(23.12)" gradientUnits="userSpaceOnUse"><stop offset="0.01" stop-color="#fff"/><stop offset="0.79" stop-color="#fff"/><stop offset="1" stop-color="#fff"/></radialGradient></defs><g style="isolation:isolate"><g id="Layer_1" data-name="Layer 1"><polygon points="40.59 187.53 5.52 151.88 4.37 52.99 53.82 1.82 90.61 57.59 87.74 157.63 40.59 187.53" style="fill:url(#linear-gradient-3)"/><g style="mask:url(#mask-10)"><path d="M90.44,63.49a57.58,57.58,0,0,0-86-1.33L5.4,141.1a57.58,57.58,0,0,0,82.81.13Z" style="mix-blend-mode:overlay;fill:url(#radial-gradient-8)"/></g><polygon points="89.85 58.16 78.35 60.66 85.06 154.37 86.59 155.71 89.85 58.16" style="fill:url(#linear-gradient-4)"/><g style="mask:url(#mask-11)"><polygon points="33.12 161.65 23.35 147.85 27.23 62.41 5.81 55.87 7.82 152.74 41.74 184.08 39.89 156.52 33.12 161.65" style="fill:url(#linear-gradient-5)"/></g><g style="mask:url(#mask-12)"><ellipse cx="11.84" cy="138.66" rx="5.36" ry="8.22" transform="translate(-7.5 0.85) rotate(-3.11)" style="mix-blend-mode:multiply;fill:url(#radial-gradient-9)"/></g><polygon points="55.54 7.57 89.75 59.31 51.23 67.08 43.76 52.7 55.54 7.57" style="fill:url(#linear-gradient-6)"/><polygon points="43.18 63.34 19.03 65.64 19.32 152.17 29.96 164.24 41.46 142.97 43.18 63.34" style="fill:#c4377c;opacity:0.30000000000000004;mix-blend-mode:multiply"/><polygon points="53.82 1.82 4.37 52.99 27.37 59.31 23.35 147.85 33.12 161.65 49.79 149 53.82 63.91 43.47 46.09 53.82 1.82" style="fill:#fff;opacity:0.9;mix-blend-mode:overlay"/><polygon points="53.82 1.82 4.37 52.99 5.52 151.88 7.63 53.76 53.82 1.82" style="fill:#94ffde"/><polygon points="43.47 46.09 27.37 59.31 23.35 147.85 30.05 60.08 43.47 46.09" style="fill:#94ffde"/><polygon points="5.52 151.88 23.35 147.85 33.12 161.65 40.59 187.53 5.52 151.88" style="fill:#fff;opacity:0.85;mix-blend-mode:overlay"/><polygon points="87.74 157.63 49.79 149 33.12 161.65 40.59 187.53 87.74 157.63" style="fill:#c4377c;opacity:0.25;mix-blend-mode:multiply"/><polygon points="53.82 63.91 90.61 57.59 87.74 157.63 49.79 149 53.82 63.91" style="fill:#c4377c;opacity:0.5;mix-blend-mode:multiply"/><polygon points="53.82 63.91 43.47 46.09 53.82 1.82 90.61 57.59 53.82 63.91" style="fill:#fff;opacity:0.15;mix-blend-mode:overlay"/><polygon points="62.44 75.7 89.18 66.5 55.54 11.02 51.23 46.09 62.44 75.7" style="fill:#fff;opacity:0.30000000000000004;mix-blend-mode:overlay"/><polygon points="61 64.97 56.98 148.14 79.21 153.7 67.14 71.1 61 64.97" style="fill:#fff;opacity:0.4;mix-blend-mode:overlay"/><polygon points="52.95 151.5 37.81 163 42.41 179.86 76.53 156.67 52.95 151.5" style="fill:#fff;opacity:0.4;mix-blend-mode:overlay"/><polygon points="25.84 60.27 22 145.94 11.46 148.43 22.2 59.12 25.84 60.27" style="fill:#fff;opacity:0.4;mix-blend-mode:overlay"/><polygon points="22.2 149.39 31.59 162.04 36.38 177.56 11.85 151.31 22.2 149.39" style="fill:#fff;opacity:0.4;mix-blend-mode:overlay"/><polygon points="4.37 52.99 27.37 59.31 43.47 46.09 53.82 1.82 41.36 45.23 26.89 57.4 4.37 52.99" style="fill:#fff;opacity:0.9;mix-blend-mode:overlay"/><polygon points="90.61 57.59 57.27 67.17 49.79 149 53.82 63.91 90.61 57.59" style="fill:#fff;opacity:0.6000000000000001;mix-blend-mode:overlay"/><g style="mask:url(#mask-13)"><polygon points="6.48 52.03 12.42 53.09 49.79 12.17 52.28 4.12 6.48 52.03" style="opacity:0.5;fill:url(#linear-gradient-7)"/></g><polygon points="85.58 157.77 41.31 186.52 40.31 184.08 85.58 157.77" style="fill:#f4fb0f;opacity:0.5"/><polygon points="54.25 3.69 89.75 57.01 86.73 57.73 54.25 3.69" style="fill:#f4fb0f;opacity:0.5"/><polygon points="53.82 1.82 45.19 44.8 53.82 63.91 43.47 46.09 53.82 1.82" style="fill:#c4377c;opacity:0.5;mix-blend-mode:multiply"/><polygon points="53.82 63.91 52.86 149.58 33.12 161.65 49.79 149 53.82 63.91" style="fill:#c4377c;opacity:0.5;mix-blend-mode:multiply"/><polygon points="53.82 63.91 49.79 149 33.12 161.65 46.92 146.13 53.82 63.91" style="fill:#fff;opacity:0.9;mix-blend-mode:overlay"/><polygon points="31.97 156.77 25.07 147.76 51.32 60.94 52.86 64.01 50.17 93.52 31.97 156.77" style="fill:#fff;opacity:0.5;mix-blend-mode:overlay"/><polygon points="47.06 55 49.93 59.31 25.79 132.33 47.06 55" style="fill:#fff;opacity:0.5;mix-blend-mode:overlay"/><polygon points="62.63 154.85 50.37 165.01 62.62 173.56 84.75 159.52 62.63 154.85" style="fill:#fff;opacity:0.5;mix-blend-mode:overlay"/><g style="opacity:0.5;mix-blend-mode:overlay"><polygon points="16.78 40.15 17.59 50.4 24.88 49.44 26.33 30.26 16.78 40.15" style="fill:#fff"/><polygon points="47.26 8.61 31.06 25.37 27.56 48.87 39.44 38.71 47.26 8.61" style="fill:#fff"/></g><g style="mask:url(#mask-14)"><path d="M73.32,33.89c1.5,4.28.46,8.55-2.33,9.53s-6.28-1.69-7.79-6-.46-8.55,2.33-9.54S71.81,29.61,73.32,33.89Z" style="opacity:0.5;mix-blend-mode:color-dodge;fill:url(#radial-gradient-10)"/></g><g style="mask:url(#mask-15)"><ellipse cx="64.04" cy="45.73" rx="8.88" ry="13.62" transform="translate(-11.55 23.87) rotate(-19.4)" style="opacity:0.5;mix-blend-mode:color-dodge;fill:url(#radial-gradient-11)"/></g><g style="mask:url(#mask-16)"><ellipse cx="14.56" cy="69.89" rx="12.63" ry="8.24" transform="translate(-56.66 74.83) rotate(-82.2)" style="mix-blend-mode:multiply;fill:url(#radial-gradient-12)"/></g><g style="mask:url(#mask-17)"><path d="M22.09,78.64c-.48,3.45-2.68,6-4.93,5.69S13.47,81,13.94,77.52s2.68-6,4.93-5.68S22.56,75.19,22.09,78.64Z" style="mix-blend-mode:multiply;fill:url(#radial-gradient-13)"/></g><g style="mask:url(#mask-18)"><circle cx="29.2" cy="58.32" r="18.26" transform="translate(-20.56 16.15) rotate(-23.12)" style="mix-blend-mode:color-dodge;fill:url(#radial-gradient-14)"/></g></g></g></svg>